<?xml version="1.0" encoding="UTF-8" standalone="no"?>
<svg
   width="22"
   height="22"
   viewBox="0 0 22 22"
   version="1.1"
   id="svg1"
   sodipodi:docname="view-filter-rtl.svg"
   inkscape:version="1.3.2 (091e20ef0f, 2023-11-25, custom)"
   xmlns:inkscape="http://www.inkscape.org/namespaces/inkscape"
   xmlns:sodipodi="http://sodipodi.sourceforge.net/DTD/sodipodi-0.dtd"
   xmlns="http://www.w3.org/2000/svg"
   xmlns:svg="http://www.w3.org/2000/svg">
  <sodipodi:namedview
     id="namedview1"
     pagecolor="#ffffff"
     bordercolor="#000000"
     borderopacity="0.25"
     inkscape:showpageshadow="2"
     inkscape:pageopacity="0.0"
     inkscape:pagecheckerboard="0"
     inkscape:deskcolor="#d1d1d1"
     inkscape:zoom="9.0227273"
     inkscape:cx="11.193955"
     inkscape:cy="12.246851"
     inkscape:window-width="944"
     inkscape:window-height="501"
     inkscape:window-x="0"
     inkscape:window-y="0"
     inkscape:window-maximized="1"
     inkscape:current-layer="svg1" />
  <defs
     id="defs1">
    <style
       id="current-color-scheme"
       type="text/css">
   .ColorScheme-Text { color:#aaaaaa; } .ColorScheme-Highlight { color:#5294e2; }
  </style>
  </defs>
  <path
     style="fill:#56e2ef;fill-opacity:1"
     class="ColorScheme-Text"
     d="M 9 2 L 9 14 L 10 14 L 10 2 L 9 2 z M 1 3 L 1 5 L 3 5 L 3 3 L 1 3 z M 5 3 L 5 5 L 7 5 L 7 3 L 5 3 z M 12 3 L 12 4 L 14 4 L 14 3 L 12 3 z M 12 6 L 12 7 L 14 7 L 14 6 L 12 6 z M 1 7 L 1 9 L 3 9 L 3 7 L 1 7 z M 5 7 L 5 9 L 7 9 L 7 7 L 5 7 z M 12 9 L 12 10 L 14 10 L 14 9 L 12 9 z M 1 11 L 1 13 L 3 13 L 3 11 L 1 11 z M 5 11 L 5 13 L 7 13 L 7 11 L 5 11 z M 12 12 L 12 13 L 14 13 L 14 12 L 12 12 z"
     transform="translate(3 3)"
     id="path1" />
</svg>
