<?xml version="1.0" encoding="UTF-8" standalone="no"?>
<svg
   width="22"
   height="22"
   viewBox="0 0 22 22"
   version="1.1"
   id="svg1"
   sodipodi:docname="view-list-details.svg"
   inkscape:version="1.3.2 (091e20ef0f, 2023-11-25, custom)"
   xmlns:inkscape="http://www.inkscape.org/namespaces/inkscape"
   xmlns:sodipodi="http://sodipodi.sourceforge.net/DTD/sodipodi-0.dtd"
   xmlns="http://www.w3.org/2000/svg"
   xmlns:svg="http://www.w3.org/2000/svg">
  <sodipodi:namedview
     id="namedview1"
     pagecolor="#ffffff"
     bordercolor="#000000"
     borderopacity="0.25"
     inkscape:showpageshadow="2"
     inkscape:pageopacity="0.0"
     inkscape:pagecheckerboard="0"
     inkscape:deskcolor="#d1d1d1"
     inkscape:zoom="6.3800316"
     inkscape:cx="12.068906"
     inkscape:cy="3.2131502"
     inkscape:window-width="944"
     inkscape:window-height="501"
     inkscape:window-x="0"
     inkscape:window-y="0"
     inkscape:window-maximized="1"
     inkscape:current-layer="svg1" />
  <defs
     id="defs1">
    <style
       id="current-color-scheme"
       type="text/css">
   .ColorScheme-Text { color:#aaaaaa; } .ColorScheme-Highlight { color:#5294e2; }
  </style>
  </defs>
  <path
     style="fill:#e5c07b;fill-opacity:1"
     class="ColorScheme-Text"
     d="M 1 3.0039062 L 1 5.0039062 L 3 5.0039062 L 3 3.0039062 L 1 3.0039062 z M 5 3.0039062 L 5 5.0039062 L 15 5.0039062 L 15 3.0039062 L 5 3.0039062 z M 1 7.0039062 L 1 9.0039062 L 3 9.0039062 L 3 7.0039062 L 1 7.0039062 z M 5 7.0039062 L 5 9.0039062 L 15 9.0039062 L 15 7.0039062 L 5 7.0039062 z M 1 11.003906 L 1 13.003906 L 3 13.003906 L 3 11.003906 L 1 11.003906 z M 5 11.003906 L 5 13.003906 L 15 13.003906 L 15 11.003906 L 5 11.003906 z"
     transform="translate(3 3)"
     id="path1" />
</svg>
