<?xml version="1.0" encoding="UTF-8" standalone="no"?>
<svg
   width="22"
   height="22"
   version="1.1"
   viewBox="0 0 22 22"
   id="svg1"
   sodipodi:docname="folder-download.svg"
   inkscape:version="1.3.2 (091e20ef0f, 2023-11-25, custom)"
   xmlns:inkscape="http://www.inkscape.org/namespaces/inkscape"
   xmlns:sodipodi="http://sodipodi.sourceforge.net/DTD/sodipodi-0.dtd"
   xmlns="http://www.w3.org/2000/svg"
   xmlns:svg="http://www.w3.org/2000/svg">
  <sodipodi:namedview
     id="namedview1"
     pagecolor="#ffffff"
     bordercolor="#000000"
     borderopacity="0.25"
     inkscape:showpageshadow="2"
     inkscape:pageopacity="0.0"
     inkscape:pagecheckerboard="0"
     inkscape:deskcolor="#d1d1d1"
     inkscape:zoom="36.090909"
     inkscape:cx="11"
     inkscape:cy="11"
     inkscape:window-width="944"
     inkscape:window-height="524"
     inkscape:window-x="0"
     inkscape:window-y="0"
     inkscape:window-maximized="1"
     inkscape:current-layer="svg1" />
  <defs
     id="defs1">
    <style
       id="current-color-scheme"
       type="text/css">.ColorScheme-Text { color:#aaaaaa; } .ColorScheme-Highlight { color:#5294e2; }</style>
  </defs>
  <path
     class="ColorScheme-Text"
     d="m11 4c-0.5535 0-1 0.4465-1 1v5.5859l-1.8281-1.8281c-0.39174-0.39174-1.0223-0.39174-1.4141 0s-0.39174 1.0223 0 1.4141l3.5254 3.5254c0.09451 0.09721 0.2083 0.17423 0.33594 0.22656 0.24227 0.10054 0.51501 0.10271 0.75781 0.0039 0.0021-8.68e-4 0.0037-3e-3 0.0059-0.0039 0.12252-0.05051 0.23406-0.12468 0.32617-0.2168l3.5352-3.5352c0.39174-0.39174 0.39174-1.0223 0-1.4141-0.39174-0.39174-1.0223-0.39174-1.4141 0l-1.8301 1.8281v-5.5859c0-0.5535-0.4465-1-1-1zm-6 10v2c0 1.108 0.892 2 2 2h8c1.108 0 2-0.892 2-2v-2h-2v2h-8v-2z"
     fill="currentColor"
     id="path1"
     style="fill:#89ca79;fill-opacity:1" />
</svg>
