<?xml version="1.0" encoding="UTF-8" standalone="no"?>
<svg
   width="16"
   height="16"
   version="1.1"
   id="svg1"
   sodipodi:docname="address-book-new.svg"
   inkscape:version="1.3.2 (091e20ef0f, 2023-11-25, custom)"
   xmlns:inkscape="http://www.inkscape.org/namespaces/inkscape"
   xmlns:sodipodi="http://sodipodi.sourceforge.net/DTD/sodipodi-0.dtd"
   xmlns="http://www.w3.org/2000/svg"
   xmlns:svg="http://www.w3.org/2000/svg">
  <sodipodi:namedview
     id="namedview1"
     pagecolor="#ffffff"
     bordercolor="#000000"
     borderopacity="0.25"
     inkscape:showpageshadow="2"
     inkscape:pageopacity="0.0"
     inkscape:pagecheckerboard="0"
     inkscape:deskcolor="#d1d1d1"
     inkscape:zoom="49.625"
     inkscape:cx="8"
     inkscape:cy="8.0100756"
     inkscape:window-width="753"
     inkscape:window-height="501"
     inkscape:window-x="0"
     inkscape:window-y="0"
     inkscape:window-maximized="1"
     inkscape:current-layer="svg1" />
  <defs
     id="defs1">
    <style
       id="current-color-scheme"
       type="text/css">
   .ColorScheme-Text { color:#aaaaaa; } .ColorScheme-Highlight { color:#5294e2; }
  </style>
  </defs>
  <path
     style="fill:#56e2ef;fill-opacity:1.0"
     class="ColorScheme-Text"
     d="M 3,1 C 1.89,1 1,1.89 1,3 V 13 C 1,14.11 1.89,15 3,15 H 13 C 14.11,15 15,14.11 15,13 V 3 C 15,1.89 14.11,1 13,1 Z M 8,4 C 10.21,4 12,5.79 12,8 V 8.5 C 12,9.33 11.33,10 10.5,10 10.06,10 9.64,9.8 9.35,9.46 9,9.79 8.52,10 8,10 6.9,10 6,9.1 6,8 6,6.9 6.9,6 8,6 9.1,6 10,6.9 10,8 V 8.5 C 10,8.78 10.22,9 10.5,9 10.78,9 11,8.78 11,8.5 V 8 C 11,6.34 9.66,5 8,5 6.34,5 5,6.34 5,8 5,9.66 6.34,11 8,11 H 10.5 C 10.5,11 11,11 11,11.5 10.97,12 10.5,12 10.5,12 H 8 C 5.79,12 4,10.21 4,8 4,5.79 5.79,4 8,4 Z M 8,7 C 7.45,7 7,7.45 7,8 7,8.55 7.45,9 8,9 8.55,9 9,8.55 9,8 9,7.45 8.55,7 8,7 Z"
     id="path1" />
</svg>
