<?xml version="1.0" encoding="UTF-8" standalone="no"?>
<svg
   width="16"
   height="16"
   viewBox="0 0 16 16"
   version="1.1"
   id="svg1"
   sodipodi:docname="adjustlevels.svg"
   inkscape:version="1.3.2 (091e20ef0f, 2023-11-25, custom)"
   xmlns:inkscape="http://www.inkscape.org/namespaces/inkscape"
   xmlns:sodipodi="http://sodipodi.sourceforge.net/DTD/sodipodi-0.dtd"
   xmlns="http://www.w3.org/2000/svg"
   xmlns:svg="http://www.w3.org/2000/svg">
  <sodipodi:namedview
     id="namedview1"
     pagecolor="#ffffff"
     bordercolor="#000000"
     borderopacity="0.25"
     inkscape:showpageshadow="2"
     inkscape:pageopacity="0.0"
     inkscape:pagecheckerboard="0"
     inkscape:deskcolor="#d1d1d1"
     inkscape:zoom="49.625"
     inkscape:cx="8"
     inkscape:cy="8.0100756"
     inkscape:window-width="744"
     inkscape:window-height="501"
     inkscape:window-x="0"
     inkscape:window-y="0"
     inkscape:window-maximized="1"
     inkscape:current-layer="svg1" />
  <defs
     id="defs1">
    <style
       id="current-color-scheme"
       type="text/css">
   .ColorScheme-Text { color:#aaaaaa; } .ColorScheme-Highlight { color:#5294e2; }
  </style>
  </defs>
  <path
     style="fill:#56e2ef;fill-opacity:1.0"
     class="ColorScheme-Text"
     d="M 11 2 A 3 3 0 0 0 8.1757812 4 L 1 4 L 1 6 L 8.1738281 6 A 3 3 0 0 0 11 8 A 3 3 0 0 0 13.824219 6 L 15 6 L 15 4 L 13.826172 4 A 3 3 0 0 0 11 2 z M 6 8 A 3 3 0 0 0 3.1757812 10 L 1 10 L 1 12 L 3.1738281 12 A 3 3 0 0 0 6 14 A 3 3 0 0 0 8.8242188 12 L 15 12 L 15 10 L 8.8261719 10 A 3 3 0 0 0 6 8 z"
     id="path1" />
</svg>
