<?xml version="1.0" encoding="UTF-8" standalone="no"?>
<svg
   width="16"
   height="16"
   viewBox="0 0 16 16"
   version="1.1"
   id="svg1"
   sodipodi:docname="bitmap-trace.svg"
   inkscape:version="1.3.2 (091e20ef0f, 2023-11-25, custom)"
   xmlns:inkscape="http://www.inkscape.org/namespaces/inkscape"
   xmlns:sodipodi="http://sodipodi.sourceforge.net/DTD/sodipodi-0.dtd"
   xmlns="http://www.w3.org/2000/svg"
   xmlns:svg="http://www.w3.org/2000/svg">
  <sodipodi:namedview
     id="namedview1"
     pagecolor="#ffffff"
     bordercolor="#000000"
     borderopacity="0.25"
     inkscape:showpageshadow="2"
     inkscape:pageopacity="0.0"
     inkscape:pagecheckerboard="0"
     inkscape:deskcolor="#d1d1d1"
     inkscape:zoom="8.7725435"
     inkscape:cx="12.425131"
     inkscape:cy="9.9743022"
     inkscape:window-width="744"
     inkscape:window-height="501"
     inkscape:window-x="0"
     inkscape:window-y="0"
     inkscape:window-maximized="1"
     inkscape:current-layer="svg1" />
  <defs
     id="defs1">
    <style
       id="current-color-scheme"
       type="text/css">
   .ColorScheme-Text { color:#aaaaaa; } .ColorScheme-Highlight { color:#5294e2; }
  </style>
  </defs>
  <path
     style="fill:#56e2ef;fill-opacity:1.0"
     class="ColorScheme-Text"
     d="M 2 2 C 1 2 1 3 1 3 L 1 13 C 1 14 2 14 2 14 L 9 14 L 9 12.582031 L 9.5820312 12 L 3 12 L 3 9.5 L 5.5 6.5625 L 8.8125 10.3125 L 10.9375 8.25 L 12.134766 9.4472656 L 12.292969 9.2890625 L 13.292969 8.2890625 L 14 7.5820312 L 15 8.5820312 L 15 3 C 15 2 14 2 14 2 L 2 2 z M 14 8.9960938 L 13 9.9960938 L 12 10.996094 L 10 12.996094 L 10 14.996094 L 12 14.996094 L 12.59375 14.402344 L 13 13.996094 L 14 12.996094 L 15 11.996094 L 16 10.996094 L 14 8.9960938 z"
     id="path1" />
</svg>
