<?xml version="1.0" encoding="UTF-8" standalone="no"?>
<svg
   width="16"
   height="16"
   viewBox="0 0 16 16"
   version="1.1"
   id="svg1"
   sodipodi:docname="call-start.svg"
   inkscape:version="1.3.2 (091e20ef0f, 2023-11-25, custom)"
   xmlns:inkscape="http://www.inkscape.org/namespaces/inkscape"
   xmlns:sodipodi="http://sodipodi.sourceforge.net/DTD/sodipodi-0.dtd"
   xmlns="http://www.w3.org/2000/svg"
   xmlns:svg="http://www.w3.org/2000/svg">
  <sodipodi:namedview
     id="namedview1"
     pagecolor="#ffffff"
     bordercolor="#000000"
     borderopacity="0.25"
     inkscape:showpageshadow="2"
     inkscape:pageopacity="0.0"
     inkscape:pagecheckerboard="0"
     inkscape:deskcolor="#d1d1d1"
     inkscape:zoom="49.625"
     inkscape:cx="8"
     inkscape:cy="8.0100756"
     inkscape:window-width="944"
     inkscape:window-height="501"
     inkscape:window-x="0"
     inkscape:window-y="0"
     inkscape:window-maximized="1"
     inkscape:current-layer="svg1" />
  <defs
     id="defs1">
    <style
       id="current-color-scheme"
       type="text/css">
   .ColorScheme-Text { color:#aaaaaa; } .ColorScheme-Highlight { color:#5294e2; }
  </style>
  </defs>
  <path
     style="fill:#89ca79;fill-opacity:1.0"
     class="ColorScheme-Text"
     d="M 9.9980469 1.0039062 C 9.4440369 1.0039062 8.9980469 1.4498963 8.9980469 2.0039062 L 8.9980469 4.0039062 C 8.9980469 4.5579162 9.4440369 5.0039062 9.9980469 5.0039062 L 10.466797 5.0039062 C 9.5628969 7.5608063 7.5549469 9.5687762 4.9980469 10.472656 L 4.9980469 10.003906 C 4.9980469 9.4499063 4.5520469 9.0039062 3.9980469 9.0039062 L 1.9980469 9.0039062 C 1.4440469 9.0039062 0.99804688 9.4499063 0.99804688 10.003906 L 0.99804688 13.003906 C 0.99804688 13.557906 1.4219669 14.003906 1.9667969 14.003906 L 1.9980469 14.003906 C 8.6148469 14.003906 13.980947 8.6479563 13.998047 2.0351562 L 13.998047 1.9726562 C 13.998047 1.4308963 13.563327 1.0039062 13.029297 1.0039062 L 9.9980469 1.0039062 z"
     id="path1" />
</svg>
