<?xml version="1.0" encoding="UTF-8" standalone="no"?>
<svg
   width="16"
   height="16"
   viewBox="0 0 16 16"
   version="1.1"
   id="svg1"
   sodipodi:docname="draw-brush.svg"
   inkscape:version="1.3.2 (091e20ef0f, 2023-11-25, custom)"
   xmlns:inkscape="http://www.inkscape.org/namespaces/inkscape"
   xmlns:sodipodi="http://sodipodi.sourceforge.net/DTD/sodipodi-0.dtd"
   xmlns="http://www.w3.org/2000/svg"
   xmlns:svg="http://www.w3.org/2000/svg">
  <sodipodi:namedview
     id="namedview1"
     pagecolor="#ffffff"
     bordercolor="#000000"
     borderopacity="0.25"
     inkscape:showpageshadow="2"
     inkscape:pageopacity="0.0"
     inkscape:pagecheckerboard="0"
     inkscape:deskcolor="#d1d1d1"
     inkscape:zoom="49.625"
     inkscape:cx="8"
     inkscape:cy="8.0100756"
     inkscape:window-width="944"
     inkscape:window-height="501"
     inkscape:window-x="0"
     inkscape:window-y="0"
     inkscape:window-maximized="1"
     inkscape:current-layer="svg1" />
  <defs
     id="defs1">
    <style
       id="current-color-scheme"
       type="text/css">
   .ColorScheme-Text { color:#aaaaaa; } .ColorScheme-Highlight { color:#5294e2; }
  </style>
  </defs>
  <path
     style="fill:#de63ee;fill-opacity:1.0"
     class="ColorScheme-Text"
     d="M 14.574219 1.0058594 C 13.520146 0.87298937 10.770478 2.75775 8.0605469 5.46875 C 6.8520776 6.67795 5.8032796 7.8729 5 9 C 5.9414561 9.29995 6.7002076 10.0582 7 11 C 8.1266713 10.19649 9.3243336 9.1522594 10.533203 7.9433594 C 13.607725 4.8675594 15.546263 1.8205187 14.863281 1.1367188 C 14.793083 1.0660188 14.697306 1.0216494 14.574219 1.0058594 z M 4.5 10.330078 L 4.5 10.332031 C 1.0001889 11.270271 3.6248533 13.4865 1 15 C 4.4998111 15 6.25 13.248178 6.25 12.080078 C 6.25 11.497798 6.3093545 10.426978 4.5 10.330078 z"
     id="path1" />
</svg>
