<?xml version="1.0" encoding="UTF-8" standalone="no"?>
<svg
   width="16"
   height="16"
   viewBox="0 0 16 16"
   version="1.1"
   id="svg1"
   sodipodi:docname="rabbitvcs-delete.svg"
   inkscape:version="1.3.2 (091e20ef0f, 2023-11-25, custom)"
   xmlns:inkscape="http://www.inkscape.org/namespaces/inkscape"
   xmlns:sodipodi="http://sodipodi.sourceforge.net/DTD/sodipodi-0.dtd"
   xmlns="http://www.w3.org/2000/svg"
   xmlns:svg="http://www.w3.org/2000/svg">
  <sodipodi:namedview
     id="namedview1"
     pagecolor="#ffffff"
     bordercolor="#000000"
     borderopacity="0.25"
     inkscape:showpageshadow="2"
     inkscape:pageopacity="0.0"
     inkscape:pagecheckerboard="0"
     inkscape:deskcolor="#d1d1d1"
     inkscape:zoom="8.7725435"
     inkscape:cx="-2.7358086"
     inkscape:cy="8.3784138"
     inkscape:window-width="944"
     inkscape:window-height="501"
     inkscape:window-x="0"
     inkscape:window-y="0"
     inkscape:window-maximized="1"
     inkscape:current-layer="svg1" />
  <defs
     id="defs1">
    <style
       id="current-color-scheme"
       type="text/css">
   .ColorScheme-Text { color:#aaaaaa; } .ColorScheme-Highlight { color:#5294e2; }
  </style>
  </defs>
  <path
     style="fill:#ef596e;fill-opacity:1.0"
     class="ColorScheme-Text"
     d="M 6 0.9921875 C 5 0.9921875 5 1.9921875 5 1.9921875 L 2 1.9921875 C 2 1.9921875 1 1.9956938 1 2.9960938 L 1 3.9960938 L 14 3.9921875 L 14 2.9960938 C 14 1.9960938 13 1.9921875 13 1.9921875 L 10 1.9921875 C 10 1.9921875 10 0.9921875 9 0.9921875 L 6 0.9921875 z M 2 4.9960938 L 2 13.996094 C 2.00005 14.519674 2.47642 14.996044 3 14.996094 L 12 14.996094 C 12.52358 14.996044 12.99995 14.519674 13 13.996094 L 13 4.9960938 L 2 4.9960938 z"
     id="path1" />
</svg>
