<?xml version="1.0" encoding="UTF-8" standalone="no"?>
<svg
   width="16"
   height="16"
   version="1.1"
   id="svg1"
   sodipodi:docname="edit-clear-list.svg"
   inkscape:version="1.3.2 (091e20ef0f, 2023-11-25, custom)"
   xmlns:inkscape="http://www.inkscape.org/namespaces/inkscape"
   xmlns:sodipodi="http://sodipodi.sourceforge.net/DTD/sodipodi-0.dtd"
   xmlns="http://www.w3.org/2000/svg"
   xmlns:svg="http://www.w3.org/2000/svg">
  <sodipodi:namedview
     id="namedview1"
     pagecolor="#ffffff"
     bordercolor="#000000"
     borderopacity="0.25"
     inkscape:showpageshadow="2"
     inkscape:pageopacity="0.0"
     inkscape:pagecheckerboard="0"
     inkscape:deskcolor="#d1d1d1"
     inkscape:zoom="17.545087"
     inkscape:cx="6.3265574"
     inkscape:cy="7.0960036"
     inkscape:window-width="944"
     inkscape:window-height="501"
     inkscape:window-x="0"
     inkscape:window-y="0"
     inkscape:window-maximized="1"
     inkscape:current-layer="svg1" />
  <defs
     id="defs1">
    <style
       id="current-color-scheme"
       type="text/css">
   .ColorScheme-Text { color:#aaaaaa; } .ColorScheme-Highlight { color:#5294e2; }
  </style>
  </defs>
  <path
     style="fill:#ef596e;fill-opacity:1"
     class="ColorScheme-Text"
     d="M 8,1 A 7,7 0 0 0 1,8 7,7 0 0 0 8,15 7,7 0 0 0 15,8 7,7 0 0 0 8,1 Z M 5,5 H 6 C 6.28,5 6.5407,5.1002 6.7207,5.2812 L 8,6.5586 9.2793,5.2812 C 9.4593,5.1002 9.72,5 10,5 H 11 V 6 C 11,6.276 10.901,6.5377 10.721,6.7188 L 9.4395,8 10.721,9.2812 C 10.901,9.4621 11,9.7239 11,10 V 11 H 10 C 9.72,11 9.4593,10.9 9.2793,10.719 L 8,9.4336 6.7207,10.719 C 6.5407,10.9 6.28,11 6,11 H 5 V 10 C 5,9.7239 5.0993,9.4622 5.2793,9.2812 L 6.5605,8 5.2793,6.7188 C 5.0993,6.5377 5,6.276 5,6 Z"
     id="path1" />
</svg>
