<?xml version="1.0" encoding="UTF-8" standalone="no"?>
<svg
   width="16"
   height="16"
   version="1.1"
   id="svg1"
   sodipodi:docname="edit-paste.svg"
   inkscape:version="1.3.2 (091e20ef0f, 2023-11-25, custom)"
   xmlns:inkscape="http://www.inkscape.org/namespaces/inkscape"
   xmlns:sodipodi="http://sodipodi.sourceforge.net/DTD/sodipodi-0.dtd"
   xmlns="http://www.w3.org/2000/svg"
   xmlns:svg="http://www.w3.org/2000/svg">
  <sodipodi:namedview
     id="namedview1"
     pagecolor="#ffffff"
     bordercolor="#000000"
     borderopacity="0.25"
     inkscape:showpageshadow="2"
     inkscape:pageopacity="0.0"
     inkscape:pagecheckerboard="0"
     inkscape:deskcolor="#d1d1d1"
     inkscape:zoom="8.7725435"
     inkscape:cx="11.741179"
     inkscape:cy="11.114222"
     inkscape:window-width="744"
     inkscape:window-height="501"
     inkscape:window-x="0"
     inkscape:window-y="0"
     inkscape:window-maximized="1"
     inkscape:current-layer="svg1" />
  <defs
     id="defs1">
    <style
       id="current-color-scheme"
       type="text/css">
   .ColorScheme-Text { color:#aaaaaa; } .ColorScheme-Highlight { color:#5294e2; }
  </style>
  </defs>
  <path
     style="fill:#89ca79;fill-opacity:1.0"
     class="ColorScheme-Text"
     d="M 8 0 A 2 2 0 0 0 6 2 L 3 2 C 2.446 2 2 2.446 2 3 L 2 14 C 2 14.554 2.446 15 3 15 L 13 15 C 13.554 15 14 14.554 14 14 L 14 3 C 14 2.446 13.554 2 13 2 L 10 2 A 2 2 0 0 0 8 0 z M 8 1 A 1 1 0 0 1 9 2 A 1 1 0 0 1 8 3 A 1 1 0 0 1 7 2 A 1 1 0 0 1 8 1 z M 4 4 L 5 4 L 5 5 L 11 5 L 11 4 L 12 4 L 12 13 L 4 13 L 4 4 z"
     id="path1" />
</svg>
