<?xml version="1.0" encoding="UTF-8" standalone="no"?>
<svg
   width="16"
   height="16"
   viewBox="0 0 16 16"
   version="1.1"
   id="svg1"
   sodipodi:docname="edit-copy.svg"
   inkscape:version="1.3.2 (091e20ef0f, 2023-11-25, custom)"
   xmlns:inkscape="http://www.inkscape.org/namespaces/inkscape"
   xmlns:sodipodi="http://sodipodi.sourceforge.net/DTD/sodipodi-0.dtd"
   xmlns="http://www.w3.org/2000/svg"
   xmlns:svg="http://www.w3.org/2000/svg">
  <sodipodi:namedview
     id="namedview1"
     pagecolor="#ffffff"
     bordercolor="#000000"
     borderopacity="0.25"
     inkscape:showpageshadow="2"
     inkscape:pageopacity="0.0"
     inkscape:pagecheckerboard="0"
     inkscape:deskcolor="#d1d1d1"
     inkscape:zoom="17.545087"
     inkscape:cx="6.4975454"
     inkscape:cy="5.2151351"
     inkscape:window-width="944"
     inkscape:window-height="501"
     inkscape:window-x="0"
     inkscape:window-y="0"
     inkscape:window-maximized="1"
     inkscape:current-layer="svg1" />
  <defs
     id="defs1">
    <style
       id="current-color-scheme"
       type="text/css">
   .ColorScheme-Text { color:#aaaaaa; } .ColorScheme-Highlight { color:#5294e2; }
  </style>
  </defs>
  <path
     style="fill:#56e2ef;fill-opacity:1"
     class="ColorScheme-Text"
     d="M 3 1.0039062 C 3 1.0039062 2 1.0039062 2 2.0039062 L 2 11.003906 C 2 11.003906 2 12.003906 3 12.003906 L 4 12.003906 L 4 3.0039062 L 12 3.0039062 L 12 2.0039062 C 12 1.0039062 11 1.0039062 11 1.0039062 L 3 1.0039062 z M 6 4.0039062 C 6 4.0039062 5 4.0039062 5 5.0039062 L 5 15.003906 C 5 16.003906 6 16.003906 6 16.003906 L 14 16.003906 C 14 16.003906 15 16.0029 15 15 L 15 5.0039062 C 15 4.0039062 14 4.0039062 14 4.0039062 L 6 4.0039062 z M 7 6.0039062 L 13 6.0039062 L 13 14.003906 L 7 14.003906 L 7 6.0039062 z"
     id="path1" />
</svg>
