<?xml version="1.0" encoding="UTF-8" standalone="no"?>
<svg
   width="16"
   height="16"
   version="1.1"
   viewBox="0 0 16 16"
   id="svg1"
   sodipodi:docname="fitbest.svg"
   inkscape:version="1.3.2 (091e20ef0f, 2023-11-25, custom)"
   xmlns:inkscape="http://www.inkscape.org/namespaces/inkscape"
   xmlns:sodipodi="http://sodipodi.sourceforge.net/DTD/sodipodi-0.dtd"
   xmlns="http://www.w3.org/2000/svg"
   xmlns:svg="http://www.w3.org/2000/svg">
  <sodipodi:namedview
     id="namedview1"
     pagecolor="#ffffff"
     bordercolor="#000000"
     borderopacity="0.25"
     inkscape:showpageshadow="2"
     inkscape:pageopacity="0.0"
     inkscape:pagecheckerboard="0"
     inkscape:deskcolor="#d1d1d1"
     inkscape:zoom="17.545087"
     inkscape:cx="8.5209039"
     inkscape:cy="12.083155"
     inkscape:window-width="1489"
     inkscape:window-height="1080"
     inkscape:window-x="0"
     inkscape:window-y="0"
     inkscape:window-maximized="1"
     inkscape:current-layer="svg1" />
  <defs
     id="defs1">
    <style
       id="current-color-scheme"
       type="text/css">
   .ColorScheme-Text { color:#aaaaaa; } .ColorScheme-Highlight { color:#5294e2; }
  </style>
  </defs>
  <path
     style="fill:#e5c07b;fill-opacity:1.0"
     class="ColorScheme-Text"
     d="M 8 0 L 6.5 2 L 5 4 L 7 4 L 7 7 L 4 7 L 4 5 L 2 6.5 L 0 8 L 2 9.5 L 4 11 L 4 9 L 7 9 L 7 12 L 5 12 L 6.5 14 L 8 16 L 9.5 14 L 11 12 L 9 12 L 9 9 L 12 9 L 12 11 L 14 9.5 L 16 8 L 14 6.5 L 12 5 L 12 7 L 9 7 L 9 4 L 11 4 L 9.5 2 L 8 0 z"
     id="path1" />
</svg>
