<?xml version="1.0" encoding="UTF-8" standalone="no"?>
<svg
   width="16"
   height="16"
   viewBox="0 0 16 16"
   version="1.1"
   id="svg1"
   sodipodi:docname="system-help.svg"
   inkscape:version="1.3.2 (091e20ef0f, 2023-11-25, custom)"
   xmlns:inkscape="http://www.inkscape.org/namespaces/inkscape"
   xmlns:sodipodi="http://sodipodi.sourceforge.net/DTD/sodipodi-0.dtd"
   xmlns="http://www.w3.org/2000/svg"
   xmlns:svg="http://www.w3.org/2000/svg">
  <sodipodi:namedview
     id="namedview1"
     pagecolor="#ffffff"
     bordercolor="#000000"
     borderopacity="0.25"
     inkscape:showpageshadow="2"
     inkscape:pageopacity="0.0"
     inkscape:pagecheckerboard="0"
     inkscape:deskcolor="#d1d1d1"
     inkscape:zoom="6.203125"
     inkscape:cx="-6.6095718"
     inkscape:cy="22.488665"
     inkscape:window-width="944"
     inkscape:window-height="501"
     inkscape:window-x="0"
     inkscape:window-y="0"
     inkscape:window-maximized="1"
     inkscape:current-layer="svg1" />
  <defs
     id="defs1">
    <style
       id="current-color-scheme"
       type="text/css">
   .ColorScheme-Text { color:#aaaaaa; } .ColorScheme-Highlight { color:#5294e2; }
  </style>
  </defs>
  <path
     style="fill:#e5c07b;fill-opacity:1.0"
     class="ColorScheme-Text"
     d="M 8 1 C 5.79 1 4 2.79 4 5 L 6 5 C 6 3.9 6.9 3 8 3 C 9.1 3 10 3.9 10 5 C 10 5.55 9.7801563 6.0501562 9.4101562 6.4101562 L 8.1699219 7.6699219 C 7.4499219 8.3999219 7 9.4 7 10.5 L 7 11 L 9 11 C 9 9.5 9.4499219 8.8999219 10.169922 8.1699219 L 11.070312 7.25 C 11.640312 6.68 12 5.88 12 5 C 12 2.79 10.21 1 8 1 z M 7 13 L 7 15 L 9 15 L 9 13 L 7 13 z"
     id="path1" />
</svg>
