<?xml version="1.0" encoding="UTF-8" standalone="no"?>
<svg
   width="16"
   height="16"
   viewBox="0 0 16 16"
   version="1.1"
   id="svg1"
   sodipodi:docname="slideshow-plugin.svg"
   inkscape:version="1.3.2 (091e20ef0f, 2023-11-25, custom)"
   xmlns:inkscape="http://www.inkscape.org/namespaces/inkscape"
   xmlns:sodipodi="http://sodipodi.sourceforge.net/DTD/sodipodi-0.dtd"
   xmlns="http://www.w3.org/2000/svg"
   xmlns:svg="http://www.w3.org/2000/svg">
  <sodipodi:namedview
     id="namedview1"
     pagecolor="#ffffff"
     bordercolor="#000000"
     borderopacity="0.25"
     inkscape:showpageshadow="2"
     inkscape:pageopacity="0.0"
     inkscape:pagecheckerboard="0"
     inkscape:deskcolor="#d1d1d1"
     inkscape:zoom="17.545087"
     inkscape:cx="9.7463181"
     inkscape:cy="9.3188481"
     inkscape:window-width="744"
     inkscape:window-height="501"
     inkscape:window-x="0"
     inkscape:window-y="0"
     inkscape:window-maximized="1"
     inkscape:current-layer="svg1" />
  <defs
     id="defs1">
    <style
       id="current-color-scheme"
       type="text/css">
   .ColorScheme-Text { color:#aaaaaa; } .ColorScheme-Highlight { color:#5294e2; }
  </style>
  </defs>
  <path
     style="fill:#56e2ef;fill-opacity:1.0"
     class="ColorScheme-Text"
     d="M 6.5 1 C 5.6977 1 5 1.6468188 5 2.4492188 L 5 4 L 1.9648438 4 C 1.4299438 4 1 4.3264281 1 4.8613281 L 1 8 L 2.4492188 8 C 3.2515187 8 4 8.6977 4 9.5 C 4 10.302 3.2515188 11 2.4492188 11 L 1 11 L 1 14.033203 C 1 14.568203 1.4299437 15 1.9648438 15 L 5 15 L 5 14.033203 C 5 13.231203 5.0175 12.041 6.5 12 C 7.9825 11.959 8 13.291203 8 14.033203 L 8 15 L 11.138672 15 C 11.673672 15 12 14.568203 12 14.033203 L 12 11 L 13.552734 11 C 14.354734 11 15 10.302 15 9.5 C 15 8.6977 14.345734 8.1233 13.552734 8 L 12 8 L 12 4.8613281 C 12 4.3264281 11.673672 4 11.138672 4 L 8 4 L 8 2.4492188 C 8 1.6468187 7.3023 1 6.5 1 z"
     id="path1" />
</svg>
