<?xml version="1.0" encoding="UTF-8" standalone="no"?>
<svg
   width="16"
   height="16"
   viewBox="0 0 16 16"
   version="1.1"
   id="svg1"
   sodipodi:docname="process-stop.svg"
   inkscape:version="1.3.2 (091e20ef0f, 2023-11-25, custom)"
   xmlns:inkscape="http://www.inkscape.org/namespaces/inkscape"
   xmlns:sodipodi="http://sodipodi.sourceforge.net/DTD/sodipodi-0.dtd"
   xmlns="http://www.w3.org/2000/svg"
   xmlns:svg="http://www.w3.org/2000/svg">
  <sodipodi:namedview
     id="namedview1"
     pagecolor="#ffffff"
     bordercolor="#000000"
     borderopacity="0.25"
     inkscape:showpageshadow="2"
     inkscape:pageopacity="0.0"
     inkscape:pagecheckerboard="0"
     inkscape:deskcolor="#d1d1d1"
     inkscape:zoom="49.625"
     inkscape:cx="8"
     inkscape:cy="8.0100756"
     inkscape:window-width="944"
     inkscape:window-height="501"
     inkscape:window-x="0"
     inkscape:window-y="0"
     inkscape:window-maximized="1"
     inkscape:current-layer="svg1" />
  <defs
     id="defs1">
    <style
       id="current-color-scheme"
       type="text/css">
   .ColorScheme-Text { color:#aaaaaa; } .ColorScheme-Highlight { color:#5294e2; }
  </style>
  </defs>
  <path
     style="fill:#ef596e;fill-opacity:1.0"
     class="ColorScheme-Text"
     d="M 5.2167969 1 L 4.9042969 1.28125 L 1.2792969 4.90625 L 0.99804688 5.21875 L 0.99804688 10.78125 L 1.2792969 11.09375 L 4.9042969 14.71875 L 5.2167969 15 L 10.779297 15 L 11.091797 14.71875 L 14.716797 11.09375 L 14.998047 10.78125 L 14.998047 5.21875 L 14.716797 4.90625 L 11.091797 1.28125 L 10.779297 1 L 5.2167969 1 z M 5.9980469 3 L 9.9980469 3 L 12.998047 6 L 12.998047 10 L 9.9980469 13 L 5.9980469 13 L 2.9980469 10 L 2.9980469 6 L 5.9980469 3 z M 6.4355469 4 L 3.9980469 6.4375 L 3.9980469 9.5625 L 6.4355469 12 L 9.5605469 12 L 11.998047 9.5625 L 11.998047 6.4375 L 9.5605469 4 L 6.4355469 4 z"
     id="path1" />
</svg>
