<?xml version="1.0" encoding="UTF-8" standalone="no"?>
<svg
   width="16"
   height="16"
   viewBox="0 0 16 16"
   version="1.1"
   id="svg1"
   sodipodi:docname="gnumeric-link-delete.svg"
   inkscape:version="1.3.2 (091e20ef0f, 2023-11-25, custom)"
   xmlns:inkscape="http://www.inkscape.org/namespaces/inkscape"
   xmlns:sodipodi="http://sodipodi.sourceforge.net/DTD/sodipodi-0.dtd"
   xmlns="http://www.w3.org/2000/svg"
   xmlns:svg="http://www.w3.org/2000/svg">
  <sodipodi:namedview
     id="namedview1"
     pagecolor="#ffffff"
     bordercolor="#000000"
     borderopacity="0.25"
     inkscape:showpageshadow="2"
     inkscape:pageopacity="0.0"
     inkscape:pagecheckerboard="0"
     inkscape:deskcolor="#d1d1d1"
     inkscape:zoom="49.625"
     inkscape:cx="8"
     inkscape:cy="8.0100756"
     inkscape:window-width="944"
     inkscape:window-height="501"
     inkscape:window-x="0"
     inkscape:window-y="0"
     inkscape:window-maximized="1"
     inkscape:current-layer="svg1" />
  <defs
     id="defs1">
    <style
       id="current-color-scheme"
       type="text/css">
   .ColorScheme-Text { color:#aaaaaa; } .ColorScheme-Highlight { color:#5294e2; }
  </style>
  </defs>
  <path
     style="fill:#ef596e;fill-opacity:1.0"
     class="ColorScheme-Text"
     d="M 5 0 C 2.23 0 0 2.23 0 5 C 0 7.77 2.23 10 5 10 L 7 10 L 7 8 L 5 8 C 3.338 8 2 6.662 2 5 C 2 3.338 3.338 2 5 2 L 7 2 L 7 0 L 5 0 z M 9 0 L 9 2 L 11 2 C 12.662 2 14 3.338 14 5 C 14 6.662 12.662 8 11 8 L 9 8 L 9 10 L 11 10 C 13.77 10 16 7.77 16 5 C 16 2.23 13.77 0 11 0 L 9 0 z M 5 4 L 5 6 L 11 6 L 11 4 L 5 4 z M 12.414062 11.050781 L 11 12.464844 L 12.060547 13.525391 L 11 14.585938 L 12.414062 16 L 13.474609 14.939453 L 14.535156 16 L 15.949219 14.585938 L 14.888672 13.525391 L 15.949219 12.464844 L 14.535156 11.050781 L 13.474609 12.111328 L 12.414062 11.050781 z"
     id="path1" />
</svg>
