<?xml version="1.0" encoding="UTF-8" standalone="no"?>
<svg
   width="16"
   height="16"
   version="1.1"
   viewBox="0 0 16 16"
   id="svg1"
   sodipodi:docname="run-build-prune.svg"
   inkscape:version="1.3.2 (091e20ef0f, 2023-11-25, custom)"
   xmlns:inkscape="http://www.inkscape.org/namespaces/inkscape"
   xmlns:sodipodi="http://sodipodi.sourceforge.net/DTD/sodipodi-0.dtd"
   xmlns="http://www.w3.org/2000/svg"
   xmlns:svg="http://www.w3.org/2000/svg">
  <sodipodi:namedview
     id="namedview1"
     pagecolor="#ffffff"
     bordercolor="#000000"
     borderopacity="0.25"
     inkscape:showpageshadow="2"
     inkscape:pageopacity="0.0"
     inkscape:pagecheckerboard="0"
     inkscape:deskcolor="#d1d1d1"
     inkscape:zoom="24.8125"
     inkscape:cx="8.0604534"
     inkscape:cy="8.4030227"
     inkscape:window-width="944"
     inkscape:window-height="501"
     inkscape:window-x="0"
     inkscape:window-y="0"
     inkscape:window-maximized="1"
     inkscape:current-layer="svg1" />
  <defs
     id="defs1">
    <style
       id="current-color-scheme"
       type="text/css">
   .ColorScheme-Text { color:#aaaaaa; } .ColorScheme-Highlight { color:#5294e2; }
  </style>
  </defs>
  <path
     style="fill:#ef596e;fill-opacity:1.0"
     class="ColorScheme-Text"
     d="M 7 1 L 7 2.0859375 A 6 6 0 0 0 4.5292969 3.1152344 L 3.7578125 2.34375 L 2.34375 3.7578125 L 3.1132812 4.5273438 A 6 6 0 0 0 2.0898438 7 L 1 7 L 1 9 L 2.0859375 9 A 6 6 0 0 0 3.1152344 11.470703 L 2.34375 12.242188 L 3.7578125 13.65625 L 4.5273438 12.886719 A 6 6 0 0 0 7 13.910156 L 7 15 L 9 15 L 9 13.914062 A 6 6 0 0 0 11.470703 12.884766 L 12.242188 13.65625 L 13.65625 12.242188 L 12.886719 11.472656 A 6 6 0 0 0 13.910156 9 L 15 9 L 15 7 L 13.914062 7 A 6 6 0 0 0 12.884766 4.5292969 L 13.65625 3.7578125 L 12.242188 2.34375 L 11.472656 3.1132812 A 6 6 0 0 0 9 2.0898438 L 9 1 L 7 1 z M 5 5 L 6.4140625 5 L 6.5859375 5.171875 L 8 6.5859375 L 9.4140625 5.171875 L 9.5859375 5 L 11 5 L 11 6.4140625 L 10.828125 6.5859375 L 9.4140625 8 L 10.828125 9.4140625 L 11 9.5859375 L 11 11 L 9.5859375 11 L 9.4140625 10.828125 L 8 9.4140625 L 6.5859375 10.828125 L 6.4140625 11 L 5 11 L 5 9.5859375 L 5.171875 9.4140625 L 6.5859375 8 L 5.171875 6.5859375 L 5 6.4140625 L 5 5 z"
     id="path1" />
</svg>
