<?xml version="1.0" encoding="UTF-8" standalone="no"?>
<svg
   width="16"
   height="16"
   viewBox="0 0 16 16"
   version="1.1"
   id="svg1"
   sodipodi:docname="view-filter.svg"
   inkscape:version="1.3.2 (091e20ef0f, 2023-11-25, custom)"
   xmlns:inkscape="http://www.inkscape.org/namespaces/inkscape"
   xmlns:sodipodi="http://sodipodi.sourceforge.net/DTD/sodipodi-0.dtd"
   xmlns="http://www.w3.org/2000/svg"
   xmlns:svg="http://www.w3.org/2000/svg">
  <sodipodi:namedview
     id="namedview1"
     pagecolor="#ffffff"
     bordercolor="#000000"
     borderopacity="0.25"
     inkscape:showpageshadow="2"
     inkscape:pageopacity="0.0"
     inkscape:pagecheckerboard="0"
     inkscape:deskcolor="#d1d1d1"
     inkscape:zoom="49.625"
     inkscape:cx="8"
     inkscape:cy="10.851385"
     inkscape:window-width="944"
     inkscape:window-height="501"
     inkscape:window-x="0"
     inkscape:window-y="0"
     inkscape:window-maximized="1"
     inkscape:current-layer="svg1" />
  <defs
     id="defs1">
    <style
       id="current-color-scheme"
       type="text/css">
   .ColorScheme-Text { color:#aaaaaa; } .ColorScheme-Highlight { color:#5294e2; }
  </style>
  </defs>
  <path
     style="fill:#56e2ef;fill-opacity:1.0"
     class="ColorScheme-Text"
     d="M 6 2 L 6 14 L 7 14 L 7 2 L 6 2 z M 2 3 L 2 4 L 4 4 L 4 3 L 2 3 z M 9 3 L 9 5 L 11 5 L 11 3 L 9 3 z M 13 3 L 13 5 L 15 5 L 15 3 L 13 3 z M 2 6 L 2 7 L 4 7 L 4 6 L 2 6 z M 9 7 L 9 9 L 11 9 L 11 7 L 9 7 z M 13 7 L 13 9 L 15 9 L 15 7 L 13 7 z M 2 9 L 2 10 L 4 10 L 4 9 L 2 9 z M 9 11 L 9 13 L 11 13 L 11 11 L 9 11 z M 13 11 L 13 13 L 15 13 L 15 11 L 13 11 z M 2 12 L 2 13 L 4 13 L 4 12 L 2 12 z"
     id="path1" />
</svg>
