<?xml version="1.0" encoding="UTF-8" standalone="no"?>
<svg
   width="16"
   height="16"
   version="1.1"
   id="svg1"
   sodipodi:docname="view-sort.svg"
   inkscape:version="1.3.2 (091e20ef0f, 2023-11-25, custom)"
   xmlns:inkscape="http://www.inkscape.org/namespaces/inkscape"
   xmlns:sodipodi="http://sodipodi.sourceforge.net/DTD/sodipodi-0.dtd"
   xmlns="http://www.w3.org/2000/svg"
   xmlns:svg="http://www.w3.org/2000/svg">
  <sodipodi:namedview
     id="namedview1"
     pagecolor="#ffffff"
     bordercolor="#000000"
     borderopacity="0.25"
     inkscape:showpageshadow="2"
     inkscape:pageopacity="0.0"
     inkscape:pagecheckerboard="0"
     inkscape:deskcolor="#d1d1d1"
     inkscape:zoom="17.545087"
     inkscape:cx="7.0105095"
     inkscape:cy="5.9560833"
     inkscape:window-width="944"
     inkscape:window-height="501"
     inkscape:window-x="0"
     inkscape:window-y="0"
     inkscape:window-maximized="1"
     inkscape:current-layer="svg1" />
  <defs
     id="defs1">
    <style
       id="current-color-scheme"
       type="text/css">
   .ColorScheme-Text { color:#aaaaaa; } .ColorScheme-Highlight { color:#5294e2; }
  </style>
  </defs>
  <path
     style="fill:#5e99f1;fill-opacity:1"
     class="ColorScheme-Text"
     d="M 11 1 L 8 5 L 10 5 L 10 8 L 12 8 L 12 5 L 14 5 L 11 1 z M 2.5 2 A 1.5 1.5 0 0 0 1 3.5 A 1.5 1.5 0 0 0 2.5 5 A 1.5 1.5 0 0 0 4 3.5 A 1.5 1.5 0 0 0 2.5 2 z M 2.5 6 A 1.5 1.5 0 0 0 1 7.5 A 1.5 1.5 0 0 0 2.5 9 A 1.5 1.5 0 0 0 4 7.5 A 1.5 1.5 0 0 0 2.5 6 z M 7 7 L 7 10 L 5 10 L 8 14 L 11 10 L 9 10 L 9 7 L 7 7 z M 2.5 10 A 1.5 1.5 0 0 0 1 11.5 A 1.5 1.5 0 0 0 2.5 13 A 1.5 1.5 0 0 0 4 11.5 A 1.5 1.5 0 0 0 2.5 10 z"
     id="path1" />
</svg>
