<?xml version="1.0" encoding="UTF-8" standalone="no"?>
<svg
   width="16"
   height="16"
   viewBox="0 0 16 16"
   version="1.1"
   id="svg1"
   sodipodi:docname="view-more.svg"
   inkscape:version="1.3.2 (091e20ef0f, 2023-11-25, custom)"
   xmlns:inkscape="http://www.inkscape.org/namespaces/inkscape"
   xmlns:sodipodi="http://sodipodi.sourceforge.net/DTD/sodipodi-0.dtd"
   xmlns="http://www.w3.org/2000/svg"
   xmlns:svg="http://www.w3.org/2000/svg">
  <sodipodi:namedview
     id="namedview1"
     pagecolor="#ffffff"
     bordercolor="#000000"
     borderopacity="0.25"
     inkscape:showpageshadow="2"
     inkscape:pageopacity="0.0"
     inkscape:pagecheckerboard="0"
     inkscape:deskcolor="#d1d1d1"
     inkscape:zoom="12.40625"
     inkscape:cx="0.56423174"
     inkscape:cy="5.9244332"
     inkscape:window-width="944"
     inkscape:window-height="501"
     inkscape:window-x="0"
     inkscape:window-y="0"
     inkscape:window-maximized="1"
     inkscape:current-layer="svg1" />
  <defs
     id="defs1">
    <style
       id="current-color-scheme"
       type="text/css">
   .ColorScheme-Text { color:#aaaaaa; } .ColorScheme-Highlight { color:#5294e2; }
  </style>
  </defs>
  <path
     style="fill:#5e99f1;fill-opacity:1.0"
     class="ColorScheme-Text"
     d="M 7.5 3.0039062 C 6.67765 3.0039062 6 3.6815562 6 4.5039062 C 6 5.3262563 6.67765 6.0039062 7.5 6.0039062 C 8.32235 6.0039062 9 5.3262563 9 4.5039062 C 9 3.6815562 8.32235 3.0039062 7.5 3.0039062 z M 7.5 7.0039062 C 6.67765 7.0039062 6 7.6815562 6 8.5039062 C 6 9.3262563 6.67765 10.003906 7.5 10.003906 C 8.32235 10.003906 9 9.3262563 9 8.5039062 C 9 7.6815562 8.32235 7.0039062 7.5 7.0039062 z M 7.5 11.003906 C 6.67765 11.003906 6 11.681556 6 12.503906 C 6 13.326256 6.67765 14.003906 7.5 14.003906 C 8.32235 14.003906 9 13.326256 9 12.503906 C 9 11.681556 8.32235 11.003906 7.5 11.003906 z"
     id="path1" />
</svg>
