<?xml version="1.0" encoding="UTF-8" standalone="no"?>
<svg
   width="16"
   height="16"
   viewBox="0 0 16 16"
   version="1.1"
   id="svg1"
   sodipodi:docname="window-close.svg"
   inkscape:version="1.3.2 (091e20ef0f, 2023-11-25, custom)"
   xmlns:inkscape="http://www.inkscape.org/namespaces/inkscape"
   xmlns:sodipodi="http://sodipodi.sourceforge.net/DTD/sodipodi-0.dtd"
   xmlns="http://www.w3.org/2000/svg"
   xmlns:svg="http://www.w3.org/2000/svg">
  <sodipodi:namedview
     id="namedview1"
     pagecolor="#ffffff"
     bordercolor="#000000"
     borderopacity="0.25"
     inkscape:showpageshadow="2"
     inkscape:pageopacity="0.0"
     inkscape:pagecheckerboard="0"
     inkscape:deskcolor="#d1d1d1"
     inkscape:zoom="49.625"
     inkscape:cx="8"
     inkscape:cy="8.0100756"
     inkscape:window-width="944"
     inkscape:window-height="501"
     inkscape:window-x="0"
     inkscape:window-y="0"
     inkscape:window-maximized="1"
     inkscape:current-layer="svg1" />
  <defs
     id="defs1">
    <style
       id="current-color-scheme"
       type="text/css">
   .ColorScheme-Text { color:#aaaaaa; } .ColorScheme-Highlight { color:#5294e2; }
  </style>
  </defs>
  <path
     style="fill:#ef596e;fill-opacity:1.0"
     class="ColorScheme-Text"
     d="M 11.003906 3.9824219 A 1 1 0 0 0 10.296875 4.2753906 L 8.0039062 6.5683594 L 5.7207031 4.2851562 A 1 1 0 0 0 5.7109375 4.2753906 A 1 1 0 0 0 5.0097656 3.9863281 L 5 4 A 1 1 0 0 0 4 5 A 1 1 0 0 0 4.2929688 5.7070312 L 6.5859375 8 L 4.2929688 10.292969 A 1 1 0 0 0 4.0039062 10.992188 A 1 1 0 0 0 5.0039062 11.992188 A 1 1 0 0 0 5.7109375 11.699219 L 8.0039062 9.40625 L 10.287109 11.689453 A 1 1 0 0 0 11.003906 11.992188 A 1 1 0 0 0 12.003906 10.992188 A 1 1 0 0 0 11.710938 10.285156 L 9.4101562 7.9863281 L 11.693359 5.703125 A 1 1 0 0 0 12.003906 4.9824219 A 1 1 0 0 0 11.003906 3.9824219 z"
     id="path1" />
</svg>
